HIERARCHY
ROOT Hips
{
  OFFSET 38.6681 98.8268 4.35986
  CHANNELS 6 Xposition Yposition Zposition Zrotation Xrotation Yrotation
  JOINT spine
  {
    OFFSET 0 8.30104 0.477351
    CHANNELS 3 Zrotation Xrotation Yrotation
    JOINT spine1
    {
      OFFSET 0 10.4565 0
      CHANNELS 3 Zrotation Xrotation Yrotation
      JOINT spine2
      {
        OFFSET 0 10.0192 0
        CHANNELS 3 Zrotation Xrotation Yrotation
        JOINT Neck
        {
          OFFSET 0 25.7235 1.22641
          CHANNELS 3 Zrotation Xrotation Yrotation
          JOINT Head
          {
            OFFSET 0 7.77175 0
            CHANNELS 3 Zrotation Xrotation Yrotation
            End Site
            {
              OFFSET 0 18.812 -6.20394
            }
          }
        }
        JOINT RightShoulder
        {
          OFFSET -4.2188 10.82 -0.587439
          CHANNELS 3 Zrotation Xrotation Yrotation
          JOINT RightArm
          {
            OFFSET 0 14.1914 0
            CHANNELS 3 Zrotation Xrotation Yrotation
            JOINT RightArmRoll
            {
              OFFSET 0 7.16409 0
              CHANNELS 3 Zrotation Xrotation Yrotation
              JOINT RightForeArm
              {
                OFFSET 0 20.8665 0
                CHANNELS 3 Zrotation Xrotation Yrotation
                JOINT RightForeArmRoll
                {
                  OFFSET 0 8.03921 0
                  CHANNELS 3 Zrotation Xrotation Yrotation
                  JOINT RightHand
                  {
                    OFFSET 0 16.133 0
                    CHANNELS 3 Zrotation Xrotation Yrotation
                    End Site
                    {
                      OFFSET 0 0 0
                    }
                  }
                }
              }
            }
          }
        }
        JOINT LeftShoulder
        {
          OFFSET 4.2188 10.82 -0.587439
          CHANNELS 3 Zrotation Xrotation Yrotation
          JOINT LeftArm
          {
            OFFSET 0 14.1914 0
            CHANNELS 3 Zrotation Xrotation Yrotation
            JOINT LeftArmRoll
            {
              OFFSET 0 7.16409 0
              CHANNELS 3 Zrotation Xrotation Yrotation
              JOINT LeftForeArm
              {
                OFFSET 0 20.8665 0
                CHANNELS 3 Zrotation Xrotation Yrotation
                JOINT LeftForeArmRoll
                {
                  OFFSET 0 8.03921 0
                  CHANNELS 3 Zrotation Xrotation Yrotation
                  JOINT LeftHand
                  {
                    OFFSET 0 16.133 0
                    CHANNELS 3 Zrotation Xrotation Yrotation
                    End Site
                    {
                      OFFSET 0 0 0
                    }
                  }
                }
              }
            }
          }
        }
      }
    }
  }
  JOINT RightUpLeg
  {
    OFFSET -7.35773 -1.34921 -1.13182
    CHANNELS 3 Zrotation Xrotation Yrotation
    JOINT RightUpLegRoll
    {
      OFFSET 0 18.9168 0
      CHANNELS 3 Zrotation Xrotation Yrotation
      JOINT RightLeg
      {
        OFFSET 0 -23.4256 0
        CHANNELS 3 Zrotation Xrotation Yrotation
        JOINT RightLegRoll
        {
          OFFSET 0 23.5023 0
          CHANNELS 3 Zrotation Xrotation Yrotation
          JOINT RightFoot
          {
            OFFSET 0 19.5617 0
            CHANNELS 3 Zrotation Xrotation Yrotation
            JOINT RightToeBase
            {
              OFFSET 0 16.3526 0
              CHANNELS 3 Zrotation Xrotation Yrotation
              End Site
              {
                OFFSET 0.00693125 7.91944 -0.912837
              }
            }
          }
        }
      }
    }
  }
  JOINT LeftUpLeg
  {
    OFFSET 7.35773 -1.34921 -1.13182
    CHANNELS 3 Zrotation Xrotation Yrotation
    JOINT LeftUpLegRoll
    {
      OFFSET 0 18.9169 0
      CHANNELS 3 Zrotation Xrotation Yrotation
      JOINT LeftLeg
      {
        OFFSET 0 23.4255 0
        CHANNELS 3 Zrotation Xrotation Yrotation
        JOINT LeftLegRoll
        {
          OFFSET 0 23.7195 0
          CHANNELS 3 Zrotation Xrotation Yrotation
          JOINT LeftFoot
          {
            OFFSET 0 19.3444 0
            CHANNELS 3 Zrotation Xrotation Yrotation
            JOINT LeftToeBase
            {
              OFFSET 0 16.3526 0
              CHANNELS 3 Zrotation Xrotation Yrotation
              End Site
              {
                OFFSET -0.0310629 7.91944 -0.912836
              }
            }
          }
        }
      }
    }
  }
}
MOTION
Frames: 13
Frame Time: 0.00208333
39.0348 98.7932 3.95144 0.619351 -1.56364 0.277709 -0.128108 -1.90909 0.197356 -0.249794 0.184195 0.412978 -0.254753 1.82924 0.417432 0.834369 33.8863 -2.14867 -1.61159 -17.118 -2.15184 33.1963 -10.8331 -6.93695 8.75175 49.2004 98.4095 -4.1404e-006 8.78084e-007 2.5603e-007 -169.234 67.3576 -175.028 -1.26153e-005 -2.10805e-006 -3.00299 8.02926 -4.95141 0.697679 -68.5015 2.16768 0.0750836 -97.5674 11.9838 -18.0571 7.95139e-015 6.36111e-015 6.36111e-015 -9.54957 2.35779 0.736805 6.38909e-006 1.79926e-006 3 -8.029 -4.95145 -0.69767 175.87 0.237045 0.806092 180 7.01548e-015 178.928 176.568 5.94969 179.705 1.60676e-006 -2.56942e-006 0.0670903 -18.5509 67.8658 19.4275 8.13649 25.2327 -3.48774 -176.374 -0.680199 1.61987 4.54188e-006 -4.6773e-006 -1.146 -3.05534 -7.97663 0.463187 7.72107e-007 -4.48212e-006 -0.0899772 18.2554 67.3523 -19.0129 -8.13649 25.2327 3.48774 
39.032 98.7936 3.94717 0.614997 -1.56557 0.279131 -0.127116 -1.90624 0.197984 -0.248857 0.189897 0.412961 -0.253824 1.83494 0.417416 0.822677 33.8563 -2.14085 -1.60691 -17.0902 -2.14781 33.2218 -10.8306 -6.93412 8.83878 49.1823 98.2782 -4.1404e-006 8.78084e-007 2.5603e-007 -169.548 66.9929 -174.653 -1.26153e-005 -2.10805e-006 -3.00299 8.02926 -4.95141 0.697679 -68.4858 2.15705 0.0782863 -97.6051 11.9965 -18.0298 -1.03368e-014 -1.59028e-015 -9.54166e-015 -9.55692 2.36869 0.737927 6.38909e-006 1.79926e-006 3 -8.029 -4.95145 -0.69767 175.876 0.227912 0.805334 180 7.01548e-015 178.928 176.564 5.93373 179.705 1.60676e-006 -2.56942e-006 0.0670766 -18.5441 67.8573 19.4202 8.13649 25.2327 -3.48774 -176.368 -0.674979 1.61819 4.54188e-006 -4.6773e-006 -1.14598 -3.05344 -7.98709 0.464016 7.72107e-007 -4.48212e-006 -0.0900187 18.2606 67.3591 -19.0184 -8.13649 25.2327 3.48774 
39.0349 98.7934 3.94531 0.610662 -1.56762 0.280604 -0.126084 -1.9034 0.198577 -0.247784 0.195561 0.412967 -0.252759 1.84061 0.417418 0.816855 33.8244 -2.13502 -1.61001 -17.0599 -2.14509 33.2475 -10.8276 -6.93091 8.92948 49.1643 98.1402 -4.1404e-006 8.78084e-007 2.5603e-007 -169.845 66.6336 -174.3 -1.26153e-005 -2.10805e-006 -3.00299 8.02926 -4.95141 0.697679 -68.4705 2.14717 0.0811748 -97.6423 12.0087 -18.0027 -2.38542e-015 3.18055e-015 -0 -9.56438 2.37982 0.739041 6.38909e-006 1.79926e-006 3 -8.029 -4.95145 -0.69767 175.881 0.218662 0.804541 180 7.01548e-015 178.928 176.561 5.91778 179.705 1.60676e-006 -2.56942e-006 0.067062 -18.5373 67.849 19.413 8.13649 25.2327 -3.48774 -176.363 -0.669789 1.61622 4.54188e-006 -4.6773e-006 -1.14596 -3.0518 -7.99782 0.464732 7.72107e-007 -4.48212e-006 -0.0900721 18.2656 67.3658 -19.0238 -8.13649 25.2327 3.48774 
39.0352 98.7907 3.94658 0.60638 -1.56975 0.282154 -0.124999 -1.90063 0.199121 -0.246531 0.201102 0.412995 -0.251513 1.84615 0.417436 0.81736 33.7913 -2.13135 -1.62171 -17.0274 -2.14384 33.2733 -10.8241 -6.92711 9.0245 49.1468 97.9948 -4.1404e-006 8.78084e-007 2.5603e-007 -170.125 66.2801 -173.968 -1.26153e-005 -2.10805e-006 -3.00299 8.02926 -4.95141 0.697679 -68.4562 2.13854 0.0835644 -97.6782 12.0202 -17.976 1.59028e-015 4.77083e-015 -0 -9.57201 2.39131 0.740151 6.38909e-006 1.79926e-006 3 -8.029 -4.95145 -0.69767 175.886 0.209339 0.803711 180 7.01548e-015 178.928 176.558 5.90196 179.705 1.60676e-006 -2.56942e-006 0.0670465 -18.5308 67.8408 19.406 8.13649 25.2327 -3.48774 -176.358 -0.664645 1.61394 4.54188e-006 -4.6773e-006 -1.14594 -3.05049 -8.00878 0.465307 7.72107e-007 -4.48212e-006 -0.090138 18.2705 67.3723 -19.029 -8.13649 25.2327 3.48774 
39.0357 98.7914 3.94305 0.602185 -1.57196 0.283804 -0.123849 -1.89797 0.1996 -0.245052 0.206434 0.413047 -0.250041 1.85148 0.417471 0.824651 33.7575 -2.13 -1.64288 -16.9932 -2.14424 33.2986 -10.8198 -6.9225 9.12444 49.13 97.8409 -4.1404e-006 8.78084e-007 2.5603e-007 -170.388 65.9328 -173.657 -1.26153e-005 -2.10805e-006 -3.00299 8.02926 -4.95141 0.697679 -68.4435 2.1317 0.0852704 -97.7123 12.0305 -17.9501 -1.03368e-014 0 -3.18055e-015 -9.5799 2.40327 0.74126 6.38909e-006 1.79926e-006 3 -8.029 -4.95145 -0.69767 175.891 0.199989 0.802842 180 7.01548e-015 178.928 176.555 5.88631 179.705 1.60676e-006 -2.56942e-006 0.0670302 -18.5244 67.8328 19.3992 8.13649 25.2327 -3.48774 -176.352 -0.65956 1.61131 4.54188e-006 -4.6773e-006 -1.14592 -3.04954 -8.01995 0.465716 7.72107e-007 -4.48212e-006 -0.0902172 18.2751 67.3784 -19.0339 -8.13649 25.2327 3.48774 
39.0354 98.7961 3.94341 0.598112 -1.57423 0.285581 -0.122623 -1.89545 0.199998 -0.243303 0.211471 0.413123 -0.248297 1.85652 0.417522 0.839185 33.7238 -2.13112 -1.67433 -16.9574 -2.14645 33.3232 -10.8143 -6.91686 9.22993 49.1142 97.6777 -4.1404e-006 8.78084e-007 2.5603e-007 -170.634 65.5921 -173.367 -1.26153e-005 -2.10805e-006 -3.00299 8.02926 -4.95141 0.697679 -68.4329 2.12717 0.0861079 -97.7439 12.0393 -17.9251 -7.95139e-015 -1.59028e-015 -0 -9.58814 2.41582 0.742372 6.38909e-006 1.79926e-006 3 -8.029 -4.95145 -0.69767 175.897 0.190657 0.801932 180 7.01548e-015 178.928 176.552 5.87088 179.705 1.60676e-006 -2.56942e-006 0.0670131 -18.5183 67.8252 19.3926 8.13649 25.2327 -3.48774 -176.347 -0.654551 1.6083 4.54188e-006 -4.6773e-006 -1.14589 -3.04902 -8.03129 0.465933 7.72107e-007 -4.48212e-006 -0.0903102 18.2794 67.3842 -19.0385 -8.13649 25.2327 3.48774 
39.0357 98.7942 3.93196 0.59415 -1.57659 0.287519 -0.12133 -1.89299 0.200338 -0.241357 0.216405 0.413238 -0.246357 1.86145 0.417604 0.865427 33.6859 -2.13617 -1.72226 -16.9155 -2.15144 33.3477 -10.8083 -6.91066 9.3407 49.0982 97.5073 -4.1404e-006 8.78084e-007 2.5603e-007 -170.87 65.2552 -173.091 -1.26153e-005 -2.10805e-006 -3.00299 8.02926 -4.95141 0.697679 -68.4233 2.12389 0.0864546 -97.7745 12.0474 -17.9006 -3.97569e-015 1.59028e-015 -0 -9.59644 2.42851 0.743447 6.38909e-006 1.79926e-006 3 -8.029 -4.95145 -0.69767 175.902 0.181246 0.800888 180 7.01548e-015 178.929 176.55 5.85559 179.705 1.60676e-006 -2.56942e-006 0.066995 -18.5123 67.8177 19.3863 8.13649 25.2327 -3.48774 -176.341 -0.649466 1.60478 4.54188e-006 -4.6773e-006 -1.14587 -3.04901 -8.04314 0.465928 7.72107e-007 -4.48212e-006 -0.0904149 18.2835 67.3897 -19.0428 -8.13649 25.2327 3.48774 
39.0356 98.7939 3.93303 0.590255 -1.57908 0.289618 -0.119991 -1.89045 0.20065 -0.239319 0.221473 0.413402 -0.244325 1.86652 0.417731 0.906108 33.64 -2.14602 -1.79021 -16.8634 -2.15973 33.373 -10.8023 -6.90445 9.45578 49.081 97.3326 -4.1404e-006 8.78084e-007 2.5603e-007 -171.099 64.9197 -172.825 -1.26153e-005 -2.10805e-006 -3.00299 8.02926 -4.95141 0.697679 -68.4131 2.12048 0.0868012 -97.8059 12.0561 -17.8759 -1.19271e-014 1.59028e-015 -6.36111e-015 -9.60454 2.4409 0.744455 6.38909e-006 1.79926e-006 3 -8.029 -4.95145 -0.69767 175.907 0.171633 0.799642 180 7.01548e-015 178.929 176.547 5.84032 179.705 1.60676e-006 -2.56942e-006 0.0669758 -18.5065 67.8104 19.3801 8.13649 25.2327 -3.48774 -176.336 -0.644175 1.60067 4.54188e-006 -4.6773e-006 -1.14585 -3.04953 -8.05578 0.465714 7.72107e-007 -4.48212e-006 -0.090529 18.2874 67.395 -19.0469 -8.13649 25.2327 3.48774 
39.0359 98.7951 3.94141 0.586405 -1.5817 0.291844 -0.118612 -1.88786 0.200937 -0.237193 0.226664 0.41361 -0.242205 1.87171 0.417897 0.959086 33.5874 -2.15996 -1.87508 -16.8029 -2.17081 33.3991 -10.7963 -6.89822 9.57481 49.0626 97.1534 -4.1404e-006 8.78084e-007 2.5603e-007 -171.321 64.5867 -172.569 -1.26153e-005 -2.10805e-006 -3.00299 8.02926 -4.95141 0.697679 -68.4024 2.11698 0.0871319 -97.8379 12.0651 -17.851 7.95139e-015 6.36111e-015 3.18055e-015 -9.61248 2.45307 0.745407 6.38909e-006 1.79926e-006 3 -8.029 -4.95145 -0.69767 175.912 0.161825 0.798234 180 7.01548e-015 178.929 176.545 5.82503 179.705 1.60676e-006 -2.56942e-006 0.0669555 -18.5007 67.8031 19.3739 8.13649 25.2327 -3.48774 -176.33 -0.638729 1.59606 4.54188e-006 -4.6773e-006 -1.14583 -3.05049 -8.06908 0.46532 7.72107e-007 -4.48212e-006 -0.0906527 18.2911 67.4001 -19.0509 -8.13649 25.2327 3.48774 
39.0323 98.7904 3.9357 0.582579 -1.58445 0.294166 -0.117197 -1.88521 0.201204 -0.234983 0.231963 0.413855 -0.240001 1.87701 0.418095 1.02222 33.5292 -2.17727 -1.97378 -16.7357 -2.18417 33.4261 -10.7902 -6.89194 9.69744 49.0432 96.9694 -4.1404e-006 8.78084e-007 2.5603e-007 -171.535 64.2569 -172.323 -1.26153e-005 -2.10805e-006 -3.00299 8.02926 -4.95141 0.697679 -68.3913 2.11343 0.0874313 -97.8705 12.0746 -17.826 -3.97569e-015 -1.59028e-015 -3.18055e-015 -9.62031 2.46511 0.746316 6.38909e-006 1.79926e-006 3 -8.029 -4.95145 -0.69767 175.917 0.151826 0.796703 180 7.01548e-015 178.929 176.544 5.80971 179.705 1.60676e-006 -2.56942e-006 0.0669342 -18.495 67.7959 19.3678 8.13649 25.2327 -3.48774 -176.324 -0.633177 1.59103 4.54188e-006 -4.6773e-006 -1.14581 -3.05183 -8.08295 0.464776 7.72107e-007 -4.48212e-006 -0.0907865 18.2947 67.405 -19.0547 -8.13649 25.2327 3.48774 
39.0362 98.7924 3.93874 0.578756 -1.58732 0.296549 -0.115751 -1.88252 0.201451 -0.232691 0.237358 0.414129 -0.237715 1.88241 0.41832 1.09336 33.4667 -2.19725 -2.0832 -16.6632 -2.19928 33.4538 -10.784 -6.88559 9.82329 49.023 96.7804 -4.1404e-006 8.78084e-007 2.5603e-007 -171.74 63.9313 -172.09 -1.26153e-005 -2.10805e-006 -3.00299 8.02926 -4.95141 0.697679 -68.3798 2.10988 0.0876837 -97.9034 12.0842 -17.8009 -3.49861e-014 -9.54166e-015 -3.18055e-015 -9.62807 2.4771 0.747197 6.38909e-006 1.79926e-006 3 -8.029 -4.95145 -0.69767 175.922 0.141643 0.795087 180 7.01548e-015 178.929 176.542 5.79436 179.706 1.60676e-006 -2.56942e-006 0.0669118 -18.4894 67.7887 19.3618 8.13649 25.2327 -3.48774 -176.318 -0.62757 1.58566 4.54188e-006 -4.6773e-006 -1.14579 -3.05346 -8.09728 0.464113 7.72107e-007 -4.48212e-006 -0.0909309 18.2982 67.4098 -19.0584 -8.13649 25.2327 3.48774 
39.0381 98.7965 3.93828 0.574914 -1.59032 0.298961 -0.11428 -1.87978 0.201683 -0.230322 0.242834 0.414428 -0.235353 1.88788 0.418566 1.17039 33.4011 -2.2192 -2.20024 -16.5873 -2.21564 33.4825 -10.7778 -6.87915 9.95201 49.0021 96.5863 -4.1404e-006 8.78084e-007 2.5603e-007 -171.937 63.611 -171.869 -1.26153e-005 -2.10805e-006 -3.00299 8.02926 -4.95141 0.697679 -68.3679 2.10636 0.0878735 -97.9366 12.094 -17.7756 -1.74931e-014 -1.59028e-015 -3.18055e-015 -9.6358 2.48914 0.74806 6.38909e-006 1.79926e-006 3 -8.029 -4.95145 -0.69767 175.927 0.131281 0.793425 180 7.01548e-015 178.929 176.54 5.77895 179.706 1.60676e-006 -2.56942e-006 0.0668885 -18.4838 67.7816 19.3558 8.13649 25.2327 -3.48774 -176.312 -0.621957 1.58002 4.54188e-006 -4.6773e-006 -1.14577 -3.05531 -8.11195 0.463361 7.72107e-007 -4.48212e-006 -0.0910861 18.3016 67.4146 -19.062 -8.13649 25.2327 3.48774 
39.0363 98.7914 3.93072 0.571032 -1.59345 0.30137 -0.112788 -1.87701 0.201902 -0.227879 0.248379 0.414744 -0.232916 1.89343 0.418827 1.25116 33.3338 -2.2424 -2.32181 -16.5095 -2.23273 33.512 -10.7714 -6.87261 10.0832 48.9807 96.3869 -4.1404e-006 8.78084e-007 2.5603e-007 -172.126 63.2969 -171.66 -1.26153e-005 -2.10805e-006 -3.00299 8.02926 -4.95141 0.697679 -68.3556 2.10291 0.0879852 -97.97 12.1039 -17.7502 -7.95139e-016 3.18055e-015 3.18055e-015 -9.64356 2.50131 0.748921 6.38909e-006 1.79926e-006 3 -8.029 -4.95145 -0.69767 175.932 0.120745 0.791757 180 7.01548e-015 178.929 176.539 5.76351 179.706 1.60676e-006 -2.56942e-006 0.0668643 -18.4782 67.7745 19.3499 8.13649 25.2327 -3.48774 -176.306 -0.616388 1.57419 4.54188e-006 -4.6773e-006 -1.14575 -3.05731 -8.12685 0.462551 7.72107e-007 -4.48212e-006 -0.0912526 18.305 67.4192 -19.0655 -8.13649 25.2327 3.48774 
